# xmcd
#
# Track frame offsets: 
#        150
#        23749
#        40163
#        71275
#        92457
#        115782
#        141244
#        158344
#        188141
#        204512
#        233655
#
# Disc length: 3714 seconds
#
# Revision: 0
# Processed by: cddbd v1.5.2PL0 Copyright (c) Steve Scherf et al.
# Submitted via: ExactAudioCopyFreeDBPlugin 1.0
#
DISCID=7f0e800b
DTITLE=Paul Rose - Double Life
DYEAR=2013
DGENRE=Blues
TTITLE0=Cold Sweat
TTITLE1=Honey Hush
TTITLE2=Let's Straighten It Out
TTITLE3=Drowning In The Sea Of Love
TTITLE4=Crazy 'Bout You Baby
TTITLE5=Dark End Of Street
TTITLE6=Ball And Chain
TTITLE7=(If Loving You Is Wrong) I Don't Want To Be Right
TTITLE8=Just A Little Bit
TTITLE9=Uphill Climb
TTITLE10=Stormy Monday
EXTD=
EXTT0=
EXTT1=
EXTT2=
EXTT3=
EXTT4=
EXTT5=
EXTT6=
EXTT7=
EXTT8=
EXTT9=
EXTT10=
PLAYORDER=
